<svg xmlns="http://www.w3.org/2000/svg"  viewBox="0 0 100 100" width="100px" height="100px" baseProfile="basic"><path d="M28.5,94c-3.584,0-6.5-2.916-6.5-6.5v-7.236c0-4.402-1.436-8.807-4.151-12.737c-4.223-6.111-6.455-13.279-6.455-20.729 c0-16.907,9.639-36.651,36.803-36.651c20.745,0,33.698,10.957,36.577,30.888l6.463,11.082c1.274,2.279,1.576,4.803,0.896,7.186 c-0.676,2.372-2.25,4.344-4.429,5.547l-0.188,0.099L85,66.198v3.116c0,4.91-2.078,9.625-5.702,12.935 c-3.093,2.825-7.082,4.445-11.298,4.604V87.5c0,3.584-2.916,6.5-6.5,6.5H28.5z" opacity=".35"/><path fill="#f2f2f2" d="M26.5,92c-3.584,0-6.5-2.916-6.5-6.5v-7.236c0-4.402-1.436-8.807-4.151-12.737 c-4.223-6.111-6.455-13.279-6.455-20.729c0-16.907,9.639-36.651,36.803-36.651c20.745,0,33.698,10.957,36.577,30.888l6.463,11.082 c1.274,2.279,1.576,4.803,0.896,7.186c-0.676,2.372-2.25,4.344-4.429,5.547l-0.188,0.099L83,64.198v3.116 c0,4.91-2.078,9.625-5.702,12.935c-3.093,2.825-7.082,4.445-11.298,4.604V85.5c0,3.584-2.916,6.5-6.5,6.5H26.5z"/><path fill="#ffb789" d="M59.5,85.5v-7.482l4.791,0.302C70.936,78.922,76.5,73.796,76.5,67.314v-7.141l6.061-3.015 c1.364-0.754,1.818-2.412,1.061-3.769L76.5,41.178c-1.667-14.02-9.091-26.533-30.303-26.533S15.894,28.967,15.894,44.797 c0,6.332,1.97,12.211,5.303,17.035S26.5,72.384,26.5,78.264V85.5H59.5z"/><path fill="#40396e" d="M59.5,87h-33c-0.829,0-1.5-0.672-1.5-1.5v-7.236c0-5.423-1.742-10.81-5.037-15.579 c-3.643-5.272-5.569-11.458-5.569-17.888c0-15.301,8.354-31.651,31.803-31.651c18.526,0,29.5,9.523,31.755,27.545l6.965,11.943 c0.58,1.038,0.72,2.199,0.407,3.293c-0.31,1.086-1.034,1.989-2.038,2.544L78,61.103v6.212c0,3.509-1.485,6.878-4.074,9.243 c-2.622,2.395-6.179,3.578-9.77,3.256L61,79.615V85.5C61,86.328,60.329,87,59.5,87z M28,84h30v-5.982 c0-0.414,0.171-0.81,0.473-1.094c0.302-0.283,0.705-0.43,1.121-0.403l4.791,0.302c2.828,0.26,5.486-0.625,7.517-2.48 C73.9,72.518,75,70.021,75,67.314v-7.141c0-0.569,0.322-1.09,0.832-1.343l6.061-3.016c0.329-0.184,0.484-0.491,0.548-0.712 c0.091-0.321,0.046-0.67-0.128-0.982l-7.107-12.187c-0.104-0.178-0.169-0.375-0.194-0.579 c-1.988-16.728-11.683-25.21-28.813-25.21c-21.236,0-28.803,14.801-28.803,28.651c0,5.817,1.742,11.413,5.037,16.183 C26.074,66.252,28,72.229,28,78.264V84z"/><circle cx="47" cy="47" r="17" fill="#ff7575"/><path fill="#f2f2f2" d="M37.043,46.999L37.043,46.999c0-1.104,0.895-2,2-2h15.914c1.104,0,2,0.895,2,2l0,0 c0,1.104-0.895,2-2,2L39.042,49C37.938,49,37.043,48.105,37.043,46.999z"/><path fill="#f2f2f2" d="M47,37.043L47,37.043c1.104,0,2,0.895,2,2v15.916c0,1.104-0.895,2-2,2l0,0c-1.104,0-2-0.895-2-2 V39.042C45,37.938,45.896,37.043,47,37.043z"/></svg>