<svg xmlns="http://www.w3.org/2000/svg"  viewBox="0 0 100 100" width="100px" height="100px"><g opacity=".35"><path d="M64.55,80.74c-0.04,0.03-0.08,0.05-0.11,0.09c0.12-0.07,0.24-0.14,0.36-0.22C64.71,80.64,64.63,80.69,64.55,80.74z M64.55,80.74c-0.04,0.03-0.08,0.05-0.11,0.09c0.12-0.07,0.24-0.14,0.36-0.22C64.71,80.64,64.63,80.69,64.55,80.74z M64.55,80.74 c-0.04,0.03-0.08,0.05-0.11,0.09c0.12-0.07,0.24-0.14,0.36-0.22C64.71,80.64,64.63,80.69,64.55,80.74z"/><path d="M94.72,82.16l-3.87-3.6c0.32-2.08,0.25-4.21-0.22-6.3c-0.56-2.53-1.66-4.85-3.21-6.82c0.99-1.97,1.52-4.17,1.52-6.46 c0-1.46-0.26-2.77-0.64-3.91c1.02-2.19,1.57-4.68,1.57-7.26c0-2.61-0.76-6.45-2.79-9.64v-0.59c0-5.41-6.03-12.19-11.08-15.58 c-1.21-4.49-1.18-7.14-4.21-8.47C69.8,10.92,65.6,7,58.36,7c-3.03,0-5.51,0.81-7.46,1.87c-0.24-0.13-0.48-0.25-0.72-0.36 C48.07,7.51,45.8,7,43.43,7C36.2,7,32,10.92,30,13.53c-3.04,1.32-6.1,4.08-7.31,8.58c-5.05,3.39-7.98,10.06-7.98,15.47v0.59 c-2.04,3.18-2.8,7.03-2.8,9.64c0,2.58,0.55,5.08,1.57,7.27c-0.38,1.14-0.64,2.45-0.64,3.9c0,4.09,1.76,7.94,4.67,10.56 c-0.01,0.2-0.01,0.4-0.01,0.6c0,6.97,5.24,12.96,12.3,14.49c2.36,2.57,6.13,4.93,10.84,4.93c4.41,0,7.86-1.68,10.31-3.51 c2.99,2.27,6.53,3.51,10.2,3.51c0.8,0,1.6-0.07,2.38-0.21c0.75,0.6,1.57,1.13,2.43,1.59c0.3,0.17,0.6,0.32,0.9,0.46 c1.12,0.53,2.27,0.92,3.4,1.17c0.26,0.06,0.59,0.14,0.99,0.2c0.13,0.02,0.25,0.04,0.37,0.06c0.11,0.01,0.21,0.03,0.32,0.04 c0.23,0.03,0.47,0.06,0.72,0.08c0.3,0.02,0.62,0.04,0.96,0.05l2.84-0.17l3.8,3.94c1.94,2.05,4.66,3.23,7.49,3.23 c2.73,0,5.31-1.06,7.26-2.99c2.02-1.98,3.11-4.67,3.03-7.55C97.98,86.68,96.8,84.07,94.72,82.16z M64.44,80.83 c0.03-0.04,0.07-0.06,0.11-0.09c0.08-0.05,0.16-0.1,0.25-0.13C64.68,80.69,64.56,80.76,64.44,80.83z"/></g><path fill="#f2f2f2" d="M62.55,78.74c-0.04,0.03-0.08,0.05-0.11,0.09c0.12-0.07,0.24-0.14,0.36-0.22 C62.71,78.64,62.63,78.69,62.55,78.74z M62.55,78.74c-0.04,0.03-0.08,0.05-0.11,0.09c0.12-0.07,0.24-0.14,0.36-0.22 C62.71,78.64,62.63,78.69,62.55,78.74z M62.55,78.74c-0.04,0.03-0.08,0.05-0.11,0.09c0.12-0.07,0.24-0.14,0.36-0.22 C62.71,78.64,62.63,78.69,62.55,78.74z"/><path fill="#f2f2f2" d="M92.72,80.16l-3.87-3.6c0.32-2.08,0.25-4.21-0.22-6.3c-0.56-2.53-1.66-4.85-3.21-6.82 c0.99-1.97,1.52-4.17,1.52-6.46c0-1.46-0.26-2.77-0.64-3.91c1.02-2.19,1.57-4.68,1.57-7.26c0-2.61-0.76-6.45-2.79-9.64v-0.59 c0-5.41-2.94-12.09-7.99-15.48c-1.21-4.49-4.27-7.24-7.3-8.57C67.8,8.92,63.6,5,56.36,5c-3.03,0-5.51,0.81-7.46,1.87 c-0.24-0.13-0.48-0.25-0.72-0.36C46.07,5.51,43.8,5,41.43,5C34.2,5,30,8.92,28,11.53c-3.04,1.32-6.1,4.08-7.31,8.58 c-5.05,3.39-7.98,10.06-7.98,15.47v0.59c-2.04,3.18-2.8,7.03-2.8,9.64c0,2.58,0.55,5.08,1.57,7.27c-0.38,1.14-0.64,2.45-0.64,3.9 c0,4.09,1.76,7.94,4.67,10.56c-0.01,0.2-0.01,0.4-0.01,0.6c0,6.97,5.24,12.96,12.3,14.49c2.36,2.57,6.13,4.93,10.84,4.93 c4.41,0,7.86-1.68,10.31-3.51c2.99,2.27,6.53,3.51,10.2,3.51c0.8,0,1.6-0.07,2.38-0.21c0.75,0.6,1.57,1.13,2.43,1.59 c0.3,0.17,0.6,0.32,0.9,0.46c1.12,0.53,2.27,0.92,3.4,1.17c0.26,0.06,0.59,0.14,0.99,0.2c0.13,0.02,0.25,0.04,0.37,0.06 c0.11,0.01,0.21,0.03,0.32,0.04c0.23,0.03,0.47,0.06,0.72,0.08c0.3,0.02,0.62,0.04,0.96,0.05l2.84-0.17l3.8,3.94 C80.2,96.82,82.92,98,85.75,98c2.73,0,5.31-1.06,7.26-2.99c2.02-1.98,3.11-4.67,3.03-7.55C95.98,84.68,94.8,82.07,92.72,80.16z M62.44,78.83c0.03-0.04,0.07-0.06,0.11-0.09c0.08-0.05,0.16-0.1,0.25-0.13C62.68,78.69,62.56,78.76,62.44,78.83z"/><polyline fill="#f4a3be" points="49.3,18.804 45.76,12.326 40.702,12.326 33.621,13.322 29.575,19.302 26.54,24.286 18.448,32.26 18.448,38.239 15.413,44.22 18.448,51.196 17.437,55.182 18.448,61.163 22.494,65.15 22.494,70.133 24.517,75.116 30.587,77.11 35.644,80.1 44.748,80.1 48.795,74.12 48.795,18.306"/><polyline fill="#f4a3be" points="48.304,18.804 51.844,12.326 56.902,12.326 63.983,13.322 68.029,19.302 71.064,24.286 79.156,32.26 79.156,38.239 82.19,44.22 79.156,51.196 80.168,55.182 79,61 75.109,65.15 75.109,70.133 73.087,75.116 67.017,77.11 61,81 52.855,80.1 48.81,74.12 48.81,18.306"/><path fill="#d84178" d="M48.802,76.512c-0.771,0-1.395-0.624-1.395-1.395V15.315c0-0.771,0.624-1.395,1.395-1.395 s1.395,0.624,1.395,1.395v59.801C50.198,75.888,49.573,76.512,48.802,76.512z"/><path fill="#d84178" d="M48.802,40.133c-0.771,0-1.395-0.624-1.395-1.395c0-2.213-1.375-3.588-3.588-3.588 c-0.771,0-1.395-0.624-1.395-1.395s0.624-1.395,1.395-1.395c3.756,0,6.379,2.623,6.379,6.379 C50.198,39.509,49.573,40.133,48.802,40.133z"/><path fill="#d84178" d="M43.818,50.1c-0.771,0-1.395-0.624-1.395-1.395s0.624-1.395,1.395-1.395 c2.213,0,3.588-1.375,3.588-3.588c0-0.771,0.624-1.395,1.395-1.395s1.395,0.624,1.395,1.395 C50.198,47.476,47.574,50.1,43.818,50.1z"/><path fill="#d84178" d="M37.839,35.648c-0.771,0-1.395-0.624-1.395-1.395c0-3.892-2.593-8.438-9.9-8.438 c-0.771,0-1.395-0.624-1.395-1.395s0.624-1.395,1.395-1.395c8.767,0,12.691,5.64,12.691,11.229 C39.234,35.023,38.61,35.648,37.839,35.648z"/><path fill="#d84178" d="M34.35,45.116c-5.99,0-10.864-4.874-10.864-10.864c0-0.771,0.624-1.395,1.395-1.395 s1.395,0.624,1.395,1.395c0,4.452,3.621,8.074,8.074,8.074c2.255,0,4.423-0.953,5.949-2.616c0.522-0.567,1.404-0.606,1.971-0.085 s0.606,1.404,0.085,1.971C40.303,43.834,37.385,45.116,34.35,45.116z"/><path fill="#d84178" d="M28.867,51.097c-0.652,0-1.234-0.459-1.367-1.122c-0.152-0.756,0.339-1.491,1.094-1.642 c0.388-0.083,3.861-0.926,3.861-4.612c0-0.771,0.624-1.395,1.395-1.395s1.395,0.624,1.395,1.395c0,4.847-3.993,6.926-6.105,7.348 C29.05,51.088,28.958,51.097,28.867,51.097z"/><path fill="#d84178" d="M31.194,68.605c-0.771,0-1.395-0.624-1.395-1.395c0-6.087,3.749-12.558,10.698-12.558h0.93 c0.771,0,1.395,0.624,1.395,1.395s-0.624,1.395-1.395,1.395h-0.93c-5.136,0-7.907,5.033-7.907,9.767 C32.589,67.981,31.965,68.605,31.194,68.605z"/><path fill="#d84178" d="M31.86,62.06c-0.474,0-0.936-0.241-1.198-0.677c-2.162-3.604-4.825-2.497-5.337-2.237 c-0.682,0.345-1.523,0.08-1.874-0.6c-0.352-0.679-0.099-1.512,0.577-1.871c1.852-0.985,6.124-1.57,9.028,3.272 c0.396,0.66,0.182,1.518-0.479,1.914C32.352,61.996,32.105,62.06,31.86,62.06z"/><path fill="#d84178" d="M39.799,75.116c-0.771,0-1.395-0.624-1.395-1.395c0-0.771,0.624-1.395,1.395-1.395 c1.426,0,2.725-1.314,2.725-2.757c0-1.452-1.324-2.824-2.725-2.824c-0.771,0-1.395-0.624-1.395-1.395s0.624-1.395,1.395-1.395 c2.938,0,5.515,2.623,5.515,5.615C45.314,72.524,42.737,75.116,39.799,75.116z"/><path fill="#d84178" d="M52.466,69.57c0-2.992,2.577-5.615,5.515-5.615c0.771,0,1.395,0.624,1.395,1.395 s-0.624,1.395-1.395,1.395c-1.401,0-2.725,1.372-2.725,2.824c0,1.443,1.299,2.757,2.725,2.757c0.771,0,1.395,0.624,1.395,1.395 c0,0.771-0.624,1.395-1.395,1.395C55.043,75.116,52.466,72.524,52.466,69.57z"/><path fill="#d84178" d="M33.985,27.674c-0.771,0-1.395-0.624-1.395-1.395c0-6.125,5.667-8.452,8.664-8.826 c0.76-0.096,1.461,0.447,1.557,1.211c0.096,0.765-0.447,1.462-1.211,1.557c-0.25,0.033-6.22,0.876-6.22,6.058 C35.38,27.05,34.756,27.674,33.985,27.674z"/><path fill="#d84178" d="M17.24,50.93c-0.173,0-0.348-0.033-0.518-0.1c-0.715-0.287-1.063-1.099-0.777-1.814 c1.957-4.895,5.674-5.171,7.367-4.632c0.734,0.233,1.14,1.019,0.906,1.753c-0.233,0.734-1.02,1.141-1.753,0.906 c-0.23-0.062-2.493-0.582-3.929,3.009C18.318,50.599,17.794,50.93,17.24,50.93z"/><path fill="#d84178" d="M48.868,40.133c-0.771,0-1.395-0.624-1.395-1.395c0-3.756,2.623-6.379,6.379-6.379 c0.771,0,1.395,0.624,1.395,1.395s-0.624,1.395-1.395,1.395c-2.213,0-3.588,1.375-3.588,3.588 C50.264,39.509,49.64,40.133,48.868,40.133z"/><path fill="#d84178" d="M53.852,50.1c-3.755,0-6.379-2.623-6.379-6.379c0-0.771,0.624-1.395,1.395-1.395 s1.395,0.624,1.395,1.395c0,2.213,1.375,3.588,3.588,3.588c0.771,0,1.395,0.624,1.395,1.395S54.623,50.1,53.852,50.1z"/><path fill="#d84178" d="M59.832,35.648c-0.771,0-1.395-0.624-1.395-1.395c0-5.589,3.924-11.229,12.691-11.229 c0.771,0,1.395,0.624,1.395,1.395s-0.624,1.395-1.395,1.395c-7.307,0-9.9,4.546-9.9,8.438 C61.228,35.023,60.602,35.648,59.832,35.648z"/><path fill="#d84178" d="M63.321,45.116c-3.034,0-5.952-1.283-8.005-3.519c-0.521-0.567-0.484-1.451,0.084-1.972 c0.567-0.521,1.45-0.483,1.972,0.084c1.527,1.662,3.695,2.616,5.95,2.616c4.452,0,8.074-3.621,8.074-8.074 c0-0.771,0.624-1.395,1.395-1.395c0.771,0,1.395,0.624,1.395,1.395C74.184,40.243,69.31,45.116,63.321,45.116z"/><path fill="#d84178" d="M68.803,51.097c-0.09,0-0.182-0.009-0.274-0.028c-2.112-0.422-6.105-2.501-6.105-7.348 c0-0.771,0.624-1.395,1.395-1.395c0.771,0,1.395,0.624,1.395,1.395c0,3.687,3.473,4.529,3.87,4.613 c0.751,0.159,1.236,0.896,1.082,1.647C70.029,50.641,69.451,51.097,68.803,51.097z"/><path fill="#d84178" d="M63.686,27.674c-0.771,0-1.395-0.624-1.395-1.395c0-5.181-5.969-6.024-6.223-6.058 c-0.763-0.1-1.302-0.798-1.205-1.561s0.793-1.306,1.554-1.207c2.997,0.374,8.664,2.701,8.664,8.826 C65.081,27.05,64.456,27.674,63.686,27.674z"/><path fill="#d84178" d="M80.43,50.93c-0.553,0-1.078-0.332-1.296-0.877c-1.494-3.735-3.831-3.041-3.93-3.009 c-0.733,0.234-1.519-0.172-1.753-0.907c-0.233-0.734,0.172-1.519,0.907-1.753c1.69-0.539,5.408-0.263,7.367,4.632 c0.287,0.715-0.061,1.527-0.777,1.814C80.778,50.899,80.603,50.93,80.43,50.93z"/><path fill="#40396e" d="M78.74,64c-0.89-0.59-1.86-1.06-2.89-1.4c-0.38,0.2-0.8,0.36-1.23,0.47 c-0.47,0.11-0.85,0.47-0.99,0.94c-0.12,0.4-0.06,0.83,0.17,1.17c1.23,0.23,2.38,0.72,3.39,1.43c-0.07-0.55-0.18-1.02-0.31-1.41 C77.55,64.88,78.18,64.48,78.74,64z"/><path fill="#707cc0" d="M87.299,86.048l-5.735-5.329L81.046,75l-8,8l5.349,0.383l5.665,5.874 C84.493,89.729,85.11,90,85.754,90c0.611,0,1.187-0.236,1.62-0.666c0.447-0.443,0.685-1.033,0.671-1.661 C88.031,87.047,87.766,86.47,87.299,86.048z"/><path fill="#40396e" d="M72.046,62C89.24,62,77.627,85,71,85s-10.954-4.373-10.954-11S65.418,62,72.046,62z" opacity=".35"/><path fill="#40396e" d="M72.22,83c-0.09,0.01-0.18,0.01-0.28,0.01c-0.15,0-0.29,0-0.43-0.01H72.22z"/><path fill="#40396e" d="M72.05,86c0.49,0,0.99-0.04,1.51-0.1C73.06,85.97,72.56,86,72.05,86z"/><circle cx="72.046" cy="74" r="9" fill="#70bfff"/><path fill="#40396e" d="M89.34,83.85l-6.06-5.64c0.81-2.16,0.99-4.53,0.47-6.87c-0.69-3.12-2.52-5.69-5.01-7.34 c1.98-1.67,3.2-4.22,3.2-7.02c0-1.79-0.69-3.28-1.27-4.2c1.39-1.81,2.2-4.33,2.2-6.97c0-2.48-0.96-5.9-2.79-8v-2.23 c0-4.69-3.02-10.54-7.48-12.21c-0.41-5.08-3.72-7.13-6.02-7.66C65.62,14.02,62.67,10,56.36,10c-3.57,0-6,1.65-7.35,2.91 c-0.7-0.61-1.86-1.35-2.99-1.89C44.78,10.43,43.25,10,41.43,10c-6.31,0-9.26,4.02-10.22,5.71c-2.31,0.53-5.62,2.58-6.02,7.66 c-4.46,1.67-7.48,7.52-7.48,12.21v2.23c-1.84,2.1-2.8,5.52-2.8,8c0,2.64,0.81,5.16,2.2,6.97c-0.57,0.92-1.27,2.41-1.27,4.2 c0,3.6,2.02,6.77,5.06,8.22c-0.23,0.72-0.4,1.69-0.4,2.94c0,5.18,4.41,9.44,10.01,9.84c1.32,2.11,4.34,4.58,8.13,4.58 c5.08,0,8.67-3.24,10.36-5.56c1.69,2.32,5.06,5.56,10.15,5.56c1.34,0,2.59-0.31,3.7-0.81c0.44,0.52,1,1.07,1.67,1.59 c0.53,0.43,1.14,0.84,1.81,1.2c0.2,0.11,0.41,0.22,0.63,0.32c0.74,0.35,1.55,0.65,2.42,0.84c0.21,0.05,0.42,0.1,0.64,0.13 c0.12,0.02,0.23,0.04,0.35,0.05c0.04,0.01,0.08,0.02,0.12,0.01c0.19,0.04,0.38,0.06,0.57,0.07c0.28,0.03,0.57,0.04,0.87,0.04 h0.12c0.49,0,0.99-0.04,1.51-0.1c0,0,0.01-0.01,0.02,0c0.26-0.04,0.53-0.09,0.8-0.14c0.27-0.06,0.56-0.12,0.84-0.2 c0.29-0.07,0.57-0.16,0.85-0.26l5.81,6.02c1,1.07,2.41,1.68,3.87,1.68c1.41,0,2.74-0.55,3.74-1.54c1.04-1.02,1.59-2.4,1.55-3.86 C91.01,86.16,90.41,84.83,89.34,83.85z M87.38,89.33C86.94,89.76,86.37,90,85.75,90c-0.64,0-1.26-0.27-1.69-0.74l-6.32-6.55 c-0.58-0.6-1.47-0.73-2.24-0.41c-0.34,0.14-0.69,0.27-1.05,0.37c-0.02,0.01-0.04,0.01-0.06,0.01c-0.41,0.11-0.81,0.19-1.2,0.24 c-0.23,0.04-0.46,0.06-0.68,0.07C72.41,83,72.32,83,72.22,83c-0.09,0.01-0.18,0.01-0.28,0.01c-0.15,0-0.29,0-0.43-0.01 c-2.98-0.15-5.04-1.8-6.09-2.89c-0.49-0.51-0.76-0.89-0.8-0.95c-0.41-0.61-1.17-0.82-1.82-0.55c-0.12,0.08-0.24,0.15-0.36,0.22 c-0.93,0.55-2.05,0.94-3.29,0.94c-5.97,0-8.79-5.74-8.9-6C50.12,73.45,49.94,73,49,73c-0.91,0-1.26,0.42-1.47,0.77 c-0.15,0.24-2.93,6-8.89,6c-3.11,0-5.44-2.42-6-3.71c-0.22-0.51-0.73-0.84-1.28-0.84c-4.45,0-8.07-3.18-8.07-7.08 c0-1.95,0.57-2.78,0.57-2.79c0.33-0.36,0.44-0.87,0.3-1.34c-0.15-0.47-0.52-0.83-1-0.94c-2.7-0.69-4.52-3.14-4.52-6.09 c0-1.89,1.28-3.33,1.28-3.34c0.52-0.56,0.5-1.43-0.05-1.96c-1.34-1.27-2.16-3.52-2.16-5.87c0-2.34,1.04-5.18,2.37-6.44 c0.27-0.26,0.41-0.62,0.41-1v-2.79c0-3.92,2.8-9.08,6.39-9.81c0.64-0.13,1.06-0.71,1.06-1.36c0-5.45,3.87-6,4.3-6.04 c0.52-0.05,0.97-0.38,1.17-0.86c0.02-0.04,2.04-4.72,8.01-4.72c4.13,0,6.2,2.97,6.28,3.09c0.24,0.36,0.75,0.56,1.18,0.6v0.04 c0.45-0.02,0.96-0.26,1.2-0.64c0.09-0.12,2.15-3.09,6.28-3.09c5.98,0,8,4.68,8.02,4.72c0.2,0.48,0.65,0.81,1.17,0.86 c0.43,0.04,4.3,0.59,4.3,6.04c0,0.65,0.42,1.23,1.05,1.36c3.6,0.73,6.39,5.89,6.39,9.81v2.79c0,0.38,0.15,0.74,0.42,1 c1.33,1.26,2.37,4.1,2.37,6.44c0,2.35-0.83,4.6-2.16,5.87c-0.55,0.53-0.58,1.4-0.06,1.96c0.01,0.01,1.29,1.45,1.29,3.34 c0,2.48-1.29,4.6-3.3,5.62c-0.38,0.2-0.8,0.36-1.23,0.47c-0.47,0.11-0.85,0.47-0.99,0.94c-0.12,0.4-0.06,0.83,0.17,1.17 c1.23,0.23,2.38,0.72,3.39,1.43c1.86,1.29,3.22,3.28,3.68,5.58c0.39,1.97,0.12,3.85-0.61,5.47c-0.35,0.79-0.12,1.71,0.5,2.3 l6.54,6.09c0.47,0.42,0.73,1,0.75,1.62C88.06,88.3,87.82,88.89,87.38,89.33z"/><path fill="#40396e" d="M62.8,78.61c-0.12,0.08-0.24,0.15-0.36,0.22c0.03-0.04,0.07-0.06,0.11-0.09 C62.63,78.69,62.71,78.64,62.8,78.61z"/><g><path fill="#d84178" d="M73.78,59.13c-0.35,0.68-1.19,0.94-1.87,0.6c-0.48-0.24-2.85-1.24-4.93,1.62 c-0.14,0.19-0.28,0.39-0.41,0.61c-0.26,0.44-0.72,0.68-1.19,0.68c-0.25,0-0.5-0.06-0.72-0.2c-0.18-0.11-0.33-0.25-0.44-0.42 c-0.05-0.11-0.1-0.21-0.16-0.31c-1.29-2.46-3.51-4.27-6.58-4.27h-0.93c-0.77,0-1.4-0.62-1.4-1.39s0.63-1.4,1.4-1.4h0.93 c3.53,0,6.23,1.67,8.03,4.12c2.74-2.91,6.11-2.36,7.7-1.51C73.88,57.62,74.14,58.45,73.78,59.13z"/></g></svg>