<svg xmlns="http://www.w3.org/2000/svg"  viewBox="0 0 100 100" width="100px" height="100px"><path d="M20.172,98c-5.495,0-9.993-4.128-10.462-9.604l-2.314-27c-0.25-2.922,0.744-5.836,2.726-7.997 c1.984-2.161,4.803-3.4,7.736-3.4h6.613c-2.88-4.536-3.632-11.399-0.083-15.547c0.389-0.455,0.826-0.868,1.302-1.235 c-1.417-7.573-0.62-14.063,2.382-19.339c4.146-7.286,11.211-9.842,14.056-10.603c1.119-0.299,5.135-1.276,9.845-1.276 c7.938,0,12.125,2.782,14.332,5.704c4.739,1.818,8.326,4.93,10.441,9.082c2.91,5.711,2.483,12.156,1.646,16.478 c0.451,0.355,0.868,0.753,1.24,1.189c3.548,4.148,2.795,11.01-0.084,15.546h6.596c2.933,0,5.751,1.239,7.735,3.399 c1.983,2.161,2.977,5.075,2.727,7.996L94.29,88.397C93.821,93.872,89.323,98,83.828,98H20.172z" opacity=".35"/><path fill="#f2f2f2" d="M18.172,96c-5.495,0-9.993-4.128-10.462-9.604l-2.314-27c-0.25-2.922,0.744-5.836,2.726-7.997 c1.984-2.161,4.803-3.4,7.736-3.4h6.613c-2.88-4.536-3.632-11.399-0.083-15.547c0.389-0.455,0.826-0.868,1.302-1.235 c-1.417-7.573-0.62-14.063,2.382-19.339c4.146-7.286,11.211-9.842,14.056-10.603c1.119-0.299,5.135-1.272,9.845-1.272 c7.938,0,12.125,2.778,14.332,5.7c4.739,1.818,8.326,4.93,10.441,9.082c2.91,5.711,2.483,12.156,1.646,16.478 c0.451,0.355,0.868,0.753,1.24,1.189c3.548,4.148,2.795,11.01-0.084,15.546h6.596c2.933,0,5.751,1.239,7.735,3.399 c1.983,2.161,2.977,5.075,2.727,7.996L92.29,86.397C91.821,91.872,87.323,96,81.828,96H18.172z"/><path fill="#ffc7a3" d="M76.545,71.828l-16.573-5.907l0.505-6.725c7.129-1.5,4.386-7.224,6.141-12.574 c1.469,1.375,3.98,0.863,5.875-1.306c2.061-2.359,2.609-5.779,1.225-7.638c-1.106-1.485-3.112-1.521-4.924-0.273 C69.298,34.159,69,31.063,69,28.448c0-12.112-8.216-19.43-19-19.43s-19,7.318-19,19.43c0,2.662-0.21,5.823,0.421,9.134 c-0.421-1.573-2.99-1.456-4.146,0.096c-1.385,1.859-0.836,5.278,1.225,7.638c2.061,2.359,3.834,2.765,5.218,0.906 c0.006-0.007,0.01-0.016,0.015-0.024C35,52,32.112,57.292,39.014,59.045l1.323,6.725l-16.882,6.059 C18.087,73.729,14.5,78.806,14.5,84.5v0h71v0C85.5,78.806,81.912,73.729,76.545,71.828z"/><path fill="#40396e" d="M50.192,62.009c4.833,0,9.284-2.582,9.284-2.582s-2.223,6.582-9.284,6.582 c-7.005,0-9.732-6.654-9.732-6.654S45.359,62.009,50.192,62.009z" opacity=".35"/><path fill="#d9eeff" d="M76.545,71.828l-16.648-5.46c-0.335,2.46-5.197,5.912-10.02,5.891 c-4.741-0.021-9.444-3.472-9.774-5.891l-16.648,5.46C18.087,73.729,14.5,78.806,14.5,84.5v0h71v0 C85.5,78.806,81.912,73.729,76.545,71.828z"/><path fill="#40396e" d="M40.079,20c5.528,0,14.313,0,19.841,0c2.777,0,4.856,2.207,5.174,4.966 C66.203,34.577,67.088,37,67.088,37h5.832c-0.07-0.114-0.145-0.224-0.229-0.321c-0.6-0.701-2.238-1.52-4.112-0.096 c0.631-3.311,0.921-5.472,0.921-8.134c0-12.112-8.716-19.93-19.5-19.93s-19.5,7.818-19.5,19.93c0,2.662,0.29,4.823,0.921,8.134 c-1.874-1.424-3.495-0.605-4.095,0.096c-0.084,0.098-0.158,0.207-0.229,0.321h5.813c0,0,0.907-2.242,1.995-12.034 C35.212,22.206,37.302,20,40.079,20z"/><path fill="#40396e" d="M29.536,34.253c0,0,2.162-2.723,4.272-3.25c0,0,25.818-1.581,27.885-14.733 C63.918,2.112,46.381,4.78,41.418,6.107C37.07,7.27,23.494,12.831,29.536,34.253z"/><path fill="#40396e" d="M59.57,18.629c0,0-0.365,3.762,6.643,12.37l4.187,3.349c0,0,7.44-19.747-9.633-24.561L59.57,18.629z"/><polygon fill="#d9eeff" points="40.188,66.838 46,83 54,83 59.77,66.831 50,70.893"/><polygon fill="#ff7575" points="50,70.893 45.022,73.663 47.449,76.067 46,83 50,83"/><polygon fill="#ff7575" points="50,70.893 54.978,73.663 52.551,76.067 54,83 50,83"/><polygon fill="#9aa2e6" points="85.5,89.5 14.5,89.5 11.5,56 88.5,56"/><path fill="none" stroke="#40396e" stroke-linecap="round" stroke-linejoin="round" stroke-miterlimit="10" stroke-width="3" d="M64.71,54.5c2.024-4.385,1.786-7.996,1.79-7.991c0,0,2.905,1.167,4.966-1.193s2.732-6.877,1.225-8.638 c-0.6-0.701-2.317-1.602-4.191-0.179c0.631-3.311,1-5.39,1-8.052c0-12.112-8.716-19.93-19.5-19.93s-19.5,7.818-19.5,19.93 c0,2.662,0.369,4.741,1,8.052c-1.874-1.424-3.574-0.523-4.174,0.179c-1.507,1.761-0.836,6.278,1.225,8.638s4.949,1.193,4.949,1.193 c0.004-0.005-0.233,3.606,1.79,7.991H15.858c-2.344,0-4.186,2.006-3.985,4.342l2.314,27c0.177,2.069,1.909,3.658,3.985,3.658 h63.656c2.077,0,3.808-1.589,3.985-3.658l2.314-27c0.2-2.335-1.641-4.342-3.985-4.342H64.71z"/><ellipse cx="50" cy="72" fill="#d9eeff" rx="6" ry="5"/></svg>