<svg xmlns="http://www.w3.org/2000/svg"  viewBox="0 0 100 100" width="100px" height="100px"><path fill="#1d1d1b" d="M90.949,7.454C89.758,5.615,87.729,4.5,85.498,4.5	c-1,0-2.003,0.236-2.909,0.688c-0.684,0.343-1.282,0.791-1.783,1.315c-0.936,0.028-1.868,0.262-2.717,0.685	c-0.905,0.453-1.658,1.091-2.236,1.845c-0.784,0.079-1.556,0.302-2.264,0.655c-2.367,1.186-3.696,3.633-3.581,6.123	c-0.168,0.285-0.315,0.583-0.438,0.894l-0.919,2.298L53.323,34.329C50.991,32.179,47.901,31,44.566,31	c-0.262,0-0.525,0.008-0.791,0.022c-2.677,0.153-6.689,1.157-10.598,5.067c-3.7,3.7-4.446,8.067-4.94,10.956	c-0.042,0.251-0.095,0.56-0.149,0.848c-1.25,0.451-3.513,0.938-4.982,1.253c-6.056,1.301-13.593,2.92-17.297,9.318	C0.43,67.756,3.318,79.06,13.732,89.475c3.942,3.942,11.953,10.557,21.303,10.557c3.423,0,6.689-0.886,9.707-2.634	c6.399-3.703,8.018-11.239,9.318-17.295c0.347-1.612,0.899-4.184,1.384-5.319c0.204-0.053,0.449-0.111,0.667-0.164	c1.536-0.367,3.857-0.922,6.573-2.552c7.294-4.376,9.407-11.16,9.624-11.917c0.576-2.015,0.141-4.196-1.166-5.839	c-1.067-1.339-2.6-2.188-4.292-2.396l15.274-15.274c2.992-0.211,5.489-1.247,7.275-3.033c0.709-0.711,1.251-1.59,1.565-2.535	l0.667-2.004c1.327-0.871,2.916-2.023,4.126-3.233c2.231-2.23,3.38-5.152,3.237-8.225c-0.127-2.729-1.307-5.402-3.235-7.33	C94.38,8.901,92.75,7.947,90.949,7.454z" opacity=".35"/><path fill="#f2f2f2" d="M88.949,5.454C87.758,3.615,85.729,2.5,83.498,2.5c-1,0-2.003,0.236-2.909,0.688	c-0.684,0.343-1.282,0.791-1.783,1.315c-0.936,0.028-1.868,0.262-2.717,0.685c-0.905,0.453-1.658,1.091-2.236,1.845	c-0.784,0.079-1.556,0.302-2.264,0.655c-2.367,1.186-3.696,3.633-3.581,6.123c-0.168,0.285-0.315,0.583-0.438,0.894l-0.919,2.298	L51.323,32.329C48.991,30.179,45.901,29,42.566,29c-0.262,0-0.525,0.008-0.791,0.022c-2.677,0.153-6.689,1.157-10.598,5.067	c-3.7,3.7-4.446,8.067-4.94,10.956c-0.042,0.251-0.095,0.56-0.149,0.848c-1.25,0.451-3.513,0.938-4.982,1.253	c-6.056,1.301-13.593,2.92-17.297,9.318c-5.379,9.292-2.491,20.596,7.923,31.011c3.942,3.942,11.953,10.557,21.303,10.557	c3.423,0,6.689-0.886,9.707-2.634c6.399-3.703,8.018-11.239,9.318-17.295c0.347-1.612,0.899-4.184,1.384-5.319	c0.204-0.053,0.449-0.111,0.667-0.164c1.536-0.367,3.857-0.922,6.573-2.552c7.294-4.376,9.407-11.16,9.624-11.917	c0.576-2.015,0.141-4.196-1.166-5.839c-1.067-1.339-2.6-2.188-4.292-2.396l15.274-15.274c2.992-0.211,5.489-1.247,7.275-3.033	c0.709-0.711,1.251-1.59,1.565-2.535l0.667-2.004c1.327-0.871,2.916-2.023,4.126-3.233c2.231-2.23,3.38-5.152,3.237-8.225	c-0.127-2.729-1.307-5.402-3.235-7.33C92.38,6.901,90.75,5.947,88.949,5.454z"/><path fill="#ff7575" d="M48.856,68.03c2.121-2.121,4.627-1.22,8.485-3.536c5.303-3.182,6.718-8.132,6.718-8.132	s-8.722,0.479-12.344-2.506l25.779-25.779c0,0,3.66,0.582,5.303-1.061l1.414-4.243c0,0,3.242-1.828,4.95-3.536	c2.121-2.121,1.414-4.95,0-6.364c-2.475-2.475-5.657-0.707-5.657-0.707l-9.899,4.95l-1.414,3.536l-22.65,22.65	c-0.056-2.061-0.536-4.117-2.452-6.033c-2.334-2.334-7.071-2.828-11.314,1.414c-3.889,3.889-2.475,9.546-4.596,11.667	c-3.889,3.889-17.854,2.652-21.744,9.369c-4.509,7.789,0.53,16.794,6.894,23.158s15.369,11.404,23.158,6.894	C46.204,85.885,44.967,71.919,48.856,68.03z"/><path fill="#ffe8d9" d="M48.856,68.03c2.121-2.121,4.627-1.22,8.485-3.536c5.303-3.182,6.718-8.132,6.718-8.132	s-8.722,0.479-12.344-2.506l6.665-6.665l-7.557-5.171l-1.282,1.282c-0.02-0.727-0.098-1.453-0.267-2.173	c-7.845-0.827-9.631,5.052-11.377,10.989c-1.768,6.01-4.05,9.965-8.396,12.38c-4.5,2.5-7.514,7.773-2.211,13.076	c4.134,4.134,9.858,5.282,16.971,4.243C45.581,76.767,46.629,70.257,48.856,68.03z"/><path fill="#9ba7c5" d="M84.211,22.775c0,0,3.242-1.828,4.95-3.536c2.121-2.121,1.414-4.95,0-6.364	c-2.475-2.475-5.657-0.707-5.657-0.707l-9.899,4.95l-1.414,3.536l-21.92,21.92l1.061,1.061L39.983,54.983l4.243,4.243l7.812-7.812	l1.061,1.061L77.494,28.08c0,0,3.66,0.582,5.303-1.061L84.211,22.775z"/><rect width="3" height="14" x="28.355" y="62.353" fill="#b73b3b" transform="rotate(-45.001 29.854 69.354)"/><rect width="3" height="14" x="32.854" y="57.853" fill="#b73b3b" transform="rotate(-45.001 34.354 64.854)"/><circle cx="36.5" cy="85.5" r="1.5" fill="#b73b3b"/><circle cx="30.5" cy="85.5" r="1.5" fill="#b73b3b"/><circle cx="25.5" cy="82.5" r="1.5" fill="#b73b3b"/><path fill="#40396e" d="M73.498,21.327c-0.046,2.88,1.564,4.805,4.564,5.305L77,29.5	c-3,0-6.5-3-6.5-7.5L73.498,21.327z" opacity=".35"/><path fill="#40396e" d="M33.036,93.032c-7.66,0-14.625-5.95-17.767-9.092c-4.111-4.111-13.035-14.773-7.132-24.97	c2.593-4.479,8.664-5.784,14.02-6.935c3.267-0.702,6.646-1.428,7.961-2.743c0.564-0.563,0.8-1.943,1.049-3.403	c0.433-2.535,0.973-5.689,3.547-8.264c2.796-2.797,5.539-3.507,7.348-3.61c2.342-0.134,4.558,0.667,6.087,2.196	c1.304,1.304,2.021,2.674,2.416,3.947l20.347-20.347l1.3-3.25c0.136-0.342,0.393-0.621,0.722-0.785l9.899-4.949	c1.385-0.771,4.799-1.603,7.388,0.988c2.085,2.085,2.656,5.829,0,8.485c-1.426,1.426-3.744,2.876-4.766,3.485l-1.235,3.706	c-0.073,0.221-0.197,0.421-0.362,0.586c-1.645,1.645-4.433,1.672-5.812,1.57L54.133,53.562c3.038,1.314,7.934,1.407,9.844,1.304	c0.493-0.012,0.952,0.184,1.254,0.563c0.302,0.38,0.403,0.882,0.27,1.348c-0.064,0.226-1.644,5.559-7.389,9.005	c-2.056,1.234-3.78,1.646-5.164,1.978c-1.344,0.321-2.232,0.533-3.032,1.333c-1.315,1.315-2.042,4.694-2.744,7.962	c-1.15,5.355-2.455,11.426-6.935,14.019C37.833,92.464,35.401,93.032,33.036,93.032z M42.568,37c-0.111,0-0.223,0.003-0.335,0.01	c-1.288,0.073-3.27,0.608-5.398,2.736c-1.899,1.899-2.312,4.313-2.711,6.647c-0.333,1.944-0.646,3.781-1.885,5.02	c-1.941,1.941-5.589,2.726-9.452,3.555c-4.747,1.021-10.126,2.176-12.053,5.506C5.873,68.87,13.77,78.199,17.39,81.82	c3.622,3.621,12.949,11.516,21.346,6.656c3.329-1.928,4.485-7.307,5.504-12.054c0.83-3.862,1.614-7.511,3.556-9.452l0,0	c1.399-1.399,2.953-1.771,4.456-2.13c1.307-0.313,2.658-0.636,4.318-1.632c2.708-1.625,4.301-3.778,5.167-5.318	c-3.051-0.067-8.155-0.552-10.975-2.875c-0.326-0.269-0.524-0.663-0.544-1.085c-0.021-0.423,0.138-0.834,0.438-1.133l25.779-25.778	c0.339-0.339,0.825-0.498,1.296-0.421c0.872,0.134,2.827,0.177,3.778-0.455l1.281-3.842c0.117-0.353,0.362-0.649,0.686-0.832	c0.031-0.018,3.087-1.75,4.626-3.289c1.545-1.546,0.82-3.423,0-4.243c-1.598-1.598-3.649-0.573-3.878-0.45l-9.437,4.719	l-1.203,3.006c-0.075,0.189-0.188,0.36-0.332,0.504l-22.65,22.649c-0.423,0.424-1.058,0.553-1.616,0.333	c-0.557-0.222-0.928-0.753-0.944-1.353c-0.06-2.161-0.662-3.661-2.013-5.013C45.172,37.477,43.926,37,42.568,37z"/><path fill="#40396e" d="M75.501,17c-0.55,0-1.08-0.304-1.343-0.829l-1-2c-0.37-0.741-0.07-1.642,0.671-2.013 c0.74-0.37,1.642-0.07,2.013,0.671l1,2c0.37,0.741,0.07,1.642-0.671,2.013C75.956,16.949,75.727,17,75.501,17z"/><path fill="#40396e" d="M80.001,14.5c-0.55,0-1.08-0.304-1.343-0.829l-1-2c-0.37-0.741-0.07-1.642,0.671-2.013 c0.741-0.369,1.642-0.069,2.013,0.671l1,2c0.37,0.741,0.07,1.642-0.671,2.013C80.456,14.449,80.227,14.5,80.001,14.5z"/><path fill="#40396e" d="M84.501,12.5c-0.55,0-1.08-0.304-1.343-0.829l-1-2c-0.37-0.741-0.07-1.642,0.671-2.013 c0.74-0.369,1.642-0.07,2.013,0.671l1,2c0.37,0.741,0.07,1.642-0.671,2.013C84.956,12.449,84.727,12.5,84.501,12.5z"/></svg>