<svg class="mainHeader__logo" viewBox="0 0 246 32" fill="none" xmlns="http://www.w3.org/2000/svg">
<path d="M63.6948 12.3347H67.2469V27.5955H76.5902V30.8325H63.6948V12.3347Z" fill="#1D386C"></path>
<path d="M81.1616 12.3347H84.7166V30.8325H81.1616V12.3347Z" fill="#1D386C"></path>
<path d="M97.2724 21.9776L93.9876 25.3478V30.8325H90.4355V12.3347H93.9876V17.1533L93.9556 21.2605H94.0573C94.5307 20.7985 95.2742 20.0048 96.3227 18.9164L102.585 12.3432H107.02L99.8777 19.6675L107.563 30.8325H103.467L97.2724 21.9776Z" fill="#1D386C"></path>
<path d="M111.455 12.3347H125.3V15.5717H115.024V19.7979H122.776V22.8705H115.024V27.5955H125.48V30.8325H111.455V12.3347Z" fill="#1D386C"></path>
<path d="M146.15 22.0116L146.185 17.4198H146.08L141.207 26.3625H138.883L133.946 17.21H133.879C133.879 17.244 133.914 20.1182 133.914 21.8019V30.8212H130.443V12.3347H134.774L138.259 18.5451C139.482 20.6936 140.158 22.1108 140.193 22.1108H140.292C140.362 22.1108 141.073 20.6936 142.29 18.511L145.709 12.3347H149.702V30.8325H146.15V22.0116Z" fill="#1D386C"></path>
<path d="M155.459 12.3347H159.014V30.8325H155.459V12.3347Z" fill="#1D386C"></path>
<path d="M177.967 30.8325L168.322 17.6522H168.22C168.22 17.6862 168.287 19.6675 168.287 21.8472V30.8325H164.732V12.3347H168.389L178.048 25.2514H178.115C178.115 25.2174 178.08 23.4005 178.08 21.4504V12.3347H181.635V30.8325H177.967Z" fill="#1D386C"></path>
<path d="M194.313 12.3347C200.412 12.3347 204.841 15.8353 204.841 21.6488C204.841 27.4623 200.406 30.8325 194.415 30.8325H187.377V12.3347H194.313ZM194.383 27.5955C198.478 27.5955 201.252 25.7446 201.252 21.6431C201.252 17.5416 198.513 15.566 194.281 15.566H190.932V27.5955H194.383Z" fill="#1D386C"></path>
<path d="M209.417 12.3347H223.262V15.5717H212.969V19.7979H220.72V22.8705H212.969V27.5955H223.424V30.8325H209.417V12.3347Z" fill="#1D386C"></path>
<path d="M235.342 12.3347C241.442 12.3347 245.868 15.8353 245.868 21.6488C245.868 27.4623 241.433 30.8325 235.444 30.8325H228.401V12.3347H235.342ZM235.409 27.5955C239.504 27.5955 242.281 25.7446 242.281 21.6431C242.281 17.5416 239.539 15.566 235.31 15.566H231.956V27.5955H235.409Z" fill="#1D386C"></path>
<path d="M12.8363 14.7721H12.694C11.1256 14.6814 9.67924 13.2075 9.52822 11.555C9.48666 11.1651 9.53442 10.7712 9.66803 10.4015C9.80164 10.0319 10.0178 9.6959 10.3008 9.4178C10.682 9.06797 11.1366 8.80314 11.6331 8.64164C12.1295 8.48014 12.656 8.42581 13.1761 8.48242C13.6232 8.5016 14.0607 8.61488 14.4588 8.81449C14.8568 9.0141 15.2059 9.29532 15.4822 9.63889C15.7043 9.95223 15.8517 10.3101 15.9135 10.6864C15.9753 11.0626 15.95 11.4475 15.8394 11.8129C15.1627 14.4263 13.6118 14.7721 12.8363 14.7721ZM12.8363 10.3844C12.4206 10.3717 12.0149 10.5101 11.6978 10.7727C11.6164 10.8523 11.5554 10.9494 11.5195 11.0562C11.4837 11.1631 11.4741 11.2766 11.4916 11.3878C11.5584 12.1389 12.2729 12.822 12.8102 12.8532C13.4491 12.9099 13.8325 11.7194 13.9283 11.3509C13.9664 11.2574 13.9818 11.1565 13.9732 11.0561C13.9646 10.9558 13.9324 10.8588 13.879 10.7727C13.7668 10.6571 13.6317 10.5651 13.4819 10.5022C13.3321 10.4394 13.1707 10.407 13.0077 10.407C12.9529 10.3967 12.8977 10.3892 12.8421 10.3844H12.8363Z" fill="#1D386C"></path>
<path d="M1.00395 32.0001C0.748908 32.0018 0.503066 31.9072 0.317911 31.736C0.132757 31.5648 0.0226518 31.3303 0.0106557 31.0817C-0.279782 24.8033 5.41279 18.3549 11.4858 18.0601C13.2843 17.9685 15.0544 18.5265 16.4581 19.6276C16.9581 18.7165 17.558 17.8612 18.2472 17.0765C20.6869 14.3158 24.0095 12.8532 27.8549 12.8503C32.3189 12.8503 35.4673 15.4666 37.3464 18.6894C39.2126 17.4528 41.3904 16.7392 43.6431 16.6259C48.5631 16.4501 54.0291 19.8203 54.5316 29.8203C54.5443 30.0752 54.4528 30.3245 54.2771 30.5135C54.1014 30.7025 53.8561 30.8156 53.5949 30.828C53.3338 30.8404 53.0783 30.7511 52.8847 30.5796C52.6911 30.4082 52.5751 30.1687 52.5624 29.9139C52.1965 22.6123 48.9029 18.3379 43.7157 18.5476C41.738 18.6555 39.8336 19.3157 38.2293 20.4496C38.9656 22.1586 39.3817 23.9826 39.4579 25.8351C39.5189 28.1027 38.7086 29.9224 37.236 30.8011C36.7704 31.0935 36.2335 31.2599 35.6803 31.2833C35.1271 31.3067 34.5775 31.1863 34.0877 30.9343C32.9724 30.3391 32.3073 29.1061 32.2696 27.5499C32.1911 24.4689 33.6404 21.7988 35.7926 19.8657C34.2387 17.0595 31.6045 14.7636 27.8549 14.7636C24.5526 14.7636 21.8196 15.9654 19.7227 18.3237C19.0039 19.1447 18.395 20.0514 17.9103 21.0221C19.0744 22.4076 19.8562 24.0604 20.1815 25.8237C20.5504 27.8872 20.0915 29.6644 18.9501 30.58C18.6332 30.8495 18.2473 31.0301 17.8335 31.1025C17.4197 31.1749 16.9936 31.1363 16.6004 30.991C15.5781 30.6083 14.8578 29.5341 14.6371 28.046C14.3699 26.2659 14.6719 23.8226 15.6217 21.4303C15.0823 20.9392 14.4479 20.5581 13.7557 20.3094C13.0635 20.0606 12.3273 19.9493 11.5904 19.9819C6.60068 20.2228 1.75328 25.7954 1.99144 30.9967C2.00246 31.2518 1.90924 31.5009 1.73225 31.689C1.55526 31.8771 1.30898 31.989 1.04752 32.0001H1.00395ZM36.6784 21.7733C35.1768 23.3152 34.2039 25.3107 34.2591 27.5131C34.2823 28.3634 34.5698 29.0012 35.049 29.2563C35.2354 29.3464 35.4431 29.3861 35.6505 29.3711C35.858 29.3562 36.0575 29.2871 36.2282 29.1713C37.0705 28.6667 37.5497 27.4451 37.509 25.8946C37.4565 24.4867 37.1762 23.0957 36.6784 21.7733ZM17.071 23.1735C16.5779 24.6582 16.4126 26.228 16.5859 27.7795C16.7253 28.6894 17.0622 29.1202 17.3091 29.1968C17.3527 29.2166 17.4834 29.2648 17.6983 29.0947C18.1311 28.7489 18.529 27.771 18.2414 26.1554C18.0385 25.1007 17.642 24.0905 17.071 23.1735Z" fill="#1D386C"></path>
<path d="M29.1328 10.2284C28.6125 10.227 28.0978 10.124 27.6189 9.92538C27.14 9.72676 26.7068 9.43658 26.3446 9.07195C25.8991 8.59936 25.5598 8.04096 25.3487 7.43269C25.1376 6.82442 25.0594 6.17976 25.119 5.54019C25.331 2.21251 27.8549 0.0809884 30.068 0.00162307C31.6684 -0.046563 33.5272 0.971014 33.9425 4.01241C34.0726 4.81275 34.027 5.63095 33.8087 6.4128C33.5904 7.19465 33.2044 7.92231 32.6762 8.54757C32.2564 9.04967 31.7336 9.46041 31.1413 9.75332C30.5491 10.0462 29.9005 10.2148 29.2374 10.2483L29.1328 10.2284ZM30.1958 1.9234H30.1378C28.8046 1.96875 27.2334 3.50787 27.0882 5.64223C27.0462 6.0148 27.0844 6.39183 27.2004 6.74913C27.3165 7.10643 27.5077 7.43613 27.762 7.71707C27.9448 7.9047 28.1653 8.05361 28.4096 8.15455C28.6539 8.25549 28.9169 8.30629 29.1822 8.3038C29.568 8.27629 29.9439 8.17179 30.2866 7.99675C30.6293 7.82172 30.9316 7.57988 31.1746 7.28623C31.5232 6.86612 31.776 6.37832 31.9163 5.85535C32.0565 5.33237 32.0809 4.78624 31.9878 4.25334C31.8688 3.38599 31.4738 1.9234 30.1958 1.9234Z" fill="#1D386C"></path>
<path d="M47.7088 14.3955C46.8328 14.3848 45.9877 14.0772 45.3185 13.5253C44.8797 13.1832 44.5446 12.731 44.3491 12.2172C44.1537 11.7033 44.1053 11.1473 44.2091 10.6086C44.3939 9.65552 44.9526 8.81051 45.7664 8.25354C46.5801 7.69657 47.5845 7.47167 48.5656 7.62673C50.0178 7.86199 51.3422 9.02129 51.0663 11.0876C50.7904 13.154 49.5851 13.9221 48.8938 14.1857C48.5159 14.3277 48.1138 14.3989 47.7088 14.3955ZM46.1289 10.9941C46.0979 11.194 46.1235 11.3984 46.2029 11.5852C46.2822 11.772 46.4123 11.9342 46.579 12.0542C46.7926 12.2386 47.0511 12.3664 47.3298 12.4254C47.6084 12.4845 47.8979 12.4728 48.1706 12.3915C48.798 12.1562 49.0245 11.4164 49.1 10.8382C49.2278 9.88864 48.6963 9.59953 48.2287 9.523C47.7518 9.45586 47.2667 9.57155 46.8752 9.84581C46.4837 10.1201 46.2162 10.5316 46.1289 10.9941Z" fill="#1D386C"></path>
</svg>