<svg xmlns="http://www.w3.org/2000/svg" xmlns:xlink="http://www.w3.org/1999/xlink" viewBox="0 0 134.09 109.72"><defs><style>.cls-1{fill:url(#linear-gradient);}</style><linearGradient id="linear-gradient" y1="54.86" x2="134.09" y2="54.86" gradientUnits="userSpaceOnUse"><stop offset="0" stop-color="#ffdb6e"/><stop offset="1" stop-color="#ffbc5e"/></linearGradient></defs><g id="Layer_2" data-name="Layer 2"><g id="Layer_1-2" data-name="Layer 1"><path class="cls-1" d="M134,47.11a23.82,23.82,0,0,0-1.72-3.34c-.34-.53-.73-1.11-1.18-1.75s-.79-1.16-1.17-1.64c-.55-.54-1.07-1.05-1.55-1.54a11.57,11.57,0,0,0-1.73-1.5l-1.51-1.44a18.65,18.65,0,0,0-1.53-1.29Q121.84,33.28,120,32c-1.19-.85-2.37-1.61-3.55-2.29s-2.38-1.54-3.52-2.2l-3.41-2c-1.22-.6-2.37-1.2-3.41-1.8a28.51,28.51,0,0,0-3.5-1.7q-3.42-1.82-6.91-3.5L88.9,15.23c-2.09-1-4.24-1.93-6.48-2.84s-4.31-1.78-6.33-2.68L73.46,8.65l-.23-.08c-1-.41-1.91-.79-2.86-1.17A144.6,144.6,0,0,0,44.89,0c0,.08,0,.16.15.22s.22.18.17.26a.63.63,0,0,0-.09.44.63.63,0,0,1-.09.44l.38.62.45.75a.59.59,0,0,1,.27.24,4.62,4.62,0,0,0,.31.58,1.9,1.9,0,0,1,.45.34,2.54,2.54,0,0,0,.46.35c-.09.16,0,.33.35.52l.24.14c0,.08,0,.17.17.27l1,.56s.1.16.17.42l5,2.88A5.9,5.9,0,0,1,56,9.7l.49.27a36.47,36.47,0,0,0-3.22,2.41,23.67,23.67,0,0,0-3.37,3.52q-1.77,1.76-3.45,3.37a34.07,34.07,0,0,0-3.23,3.59l-3.24,3.51c-1.08,1.17-2.15,2.3-3.23,3.38-1,1.31-2.07,2.6-3.1,3.86s-2,2.42-2.95,3.59c-1,1.36-2,2.7-2.95,4A43,43,0,0,0,25,45.29c-.84,1.36-1.71,2.76-2.6,4.22S20.79,52.29,20,53.65s-1.52,2.79-2.18,4.15-1.24,2.86-1.9,4.5A39.34,39.34,0,0,0,12.1,70a7.79,7.79,0,0,1-.49,1,2.54,2.54,0,0,0-.36,1l-.91,1.68a9,9,0,0,1-.77,2.11,7.5,7.5,0,0,0-.78,2c-1,2.3-1.9,4.5-2.74,6.61L3.87,90.22c-.66,2-1.19,3.75-1.62,5.2A36.55,36.55,0,0,1,1,98.87a16.46,16.46,0,0,1-.85,2.6,1,1,0,0,1-.07.42.72.72,0,0,0-.07.28v1q.29,1.13.57,0l.28-.28a4.18,4.18,0,0,1,.56-.7c.14-.19.4-.52.77-1,.47-.8,1-1.69,1.69-2.68s1.34-2.36,2.18-4a51.34,51.34,0,0,0,3-4.42q1.48-2.47,3.24-5.35c.37-.75.7-1.36,1-1.83A7.25,7.25,0,0,0,14,81.29a9.05,9.05,0,0,0,1-1.55,8,8,0,0,1,1-1.62Q17.87,75.1,20,71c.75-1.17,1.5-2.37,2.25-3.59s1.57-2.57,2.32-3.93l.64-1.17.18,0c1.47.36,3.24.77,5.31,1.2l6.09,1c2.25.33,4.61.63,7.09.93a7.42,7.42,0,0,0,2.1.31,8.88,8.88,0,0,1,2.21.39l1.91.05a2.43,2.43,0,0,0,1,.18,8.72,8.72,0,0,1,1.15.1A39.06,39.06,0,0,0,61,67c1.75.25,3.36.45,4.84.61l.51,0c-.25,2.05-.47,4.09-.64,6.13q-1.2,6.54-1.76,13a25.68,25.68,0,0,0-.35,3.31,32,32,0,0,1-.35,3.3,10.93,10.93,0,0,0-.15,1.9,5.75,5.75,0,0,1-.28,1.83v5.76c.19.19.28.31.28.35v1.13c0,.19,0,.28.15.28v.28c0,.38.09.56.28.56a2.22,2.22,0,0,0,.07.57,2.6,2.6,0,0,1,.07.56,3.36,3.36,0,0,0,.35.56.63.63,0,0,1,.07.35l.42.77.35.64a.57.57,0,0,1,.42.14.62.62,0,0,0,.43.14c.09,0,.14.09.14.28s0,.21.12.24A145,145,0,0,0,72.27,84q.23-1.52.42-3.06a2,2,0,0,0,0-.24c.12-.91.26-1.85.4-2.81q.34-3.3.84-6.82c.15-1.09.29-2.16.4-3.23h.91l5-.14a42.58,42.58,0,0,0,4.88-.28c1.6-.15,3.25-.34,4.94-.55,1.49-.23,3-.48,4.59-.76s3.24-.52,4.89-.75c1.48-.4,3-.76,4.54-1.11l4.66-1a34.42,34.42,0,0,0,4.73-1c1.49-.43,3-.87,4.64-1.31a22.74,22.74,0,0,0,4.73-1.16,39.54,39.54,0,0,0,4.34-1.88c0-.08.19-.13.42-.16a.58.58,0,0,0,.48-.29.85.85,0,0,1,.38-.35,1.33,1.33,0,0,0,.4-.42.9.9,0,0,0,.91-.45,2,2,0,0,0,.8-.83,1.55,1.55,0,0,0,1.08-.6l.8-.83L133.53,52a4.31,4.31,0,0,0,.51-2.14A12.46,12.46,0,0,0,134,47.11ZM64.31,58.93c-1.55,0-3.07,0-4.56,0s-2.85.09-4.23.15c-3.13-.13-5.88-.14-8.25-.05a8,8,0,0,1-1.9,0,9.26,9.26,0,0,0-1.83.07,7.55,7.55,0,0,0-1.78-.13c-.55,0-1.24,0-2.08-.06l-6.25.13a52.7,52.7,0,0,0-5.3.34l-1.34-.06.07-.13q1.13-2,2.25-4.5a46.05,46.05,0,0,0,2.39-4.36c.8-1.59,1.57-3.12,2.32-4.57q1.34-2.46,2.61-4.85c.89-1.64,1.75-3.19,2.6-4.64.84-1.64,1.68-3.24,2.53-4.78a32.48,32.48,0,0,1,2.95-4.43,28.44,28.44,0,0,1,3-3.87q1.62-1.7,3.24-3.31a5.46,5.46,0,0,0,.91-1,4,4,0,0,1,.85-.77c.37-.29.68-.52.91-.71l.77-.77a.92.92,0,0,0,.5-.14.69.69,0,0,1,.35-.14,1,1,0,0,1,.91-.56,1.46,1.46,0,0,1,.49-.36c.14,0,.26-.21.36-.49h.84a1.83,1.83,0,0,1,.91-.28.62.62,0,0,0,.5-.28c.14-.19.25-.28.35-.28H63.5v.14c0,.09,0,.14.07.14s.07.09.07.28h.91a11.72,11.72,0,0,1,2.53,2.6,6.62,6.62,0,0,1,1,2c.23.7.44,1.48.63,2.32a44.1,44.1,0,0,1,.63,5.2q.21,3,.21,6.33c0,2.49-.07,4.85-.21,7.1S69,44.75,68.84,47s-.45,4.46-.77,6.75c-.22,1.77-.41,3.51-.56,5.22Zm61.87-9.27c0,.05,0,.09.08.14l.12.07-2.07,3.59c0,.09-.18.14-.42.16a.61.61,0,0,0-.49.3,1.83,1.83,0,0,1-.7.64l-.42.73c-.29,0-.5,0-.6.07a1.66,1.66,0,0,1-.56.24,1,1,0,0,1-.94.51.62.62,0,0,1-.3.23,1,1,0,0,0-.37.37l-1.05.28c-.28.1-.63.26-1.07.43a4,4,0,0,1-1.09.35,5.74,5.74,0,0,0-1.3.3c-1.48.4-3,.78-4.49,1.15a28.27,28.27,0,0,1-4.83.62,31.82,31.82,0,0,1-5.31.34c-1.76,0-3.56-.11-5.4-.2-1.68,0-3.46,0-5.32-.07l-5.51-.16c-1.63-.08-3.34-.17-5.11-.28-1.35-.09-2.65-.14-3.93-.13l.21-2.87q.28-3.87.42-7.74A28,28,0,0,0,76,44.86c0-1.21,0-2.5.14-3.86V37.06c0-1.31-.05-2.7-.14-4.15s-.07-2.76-.21-4.22-.3-3-.49-4.43a16.48,16.48,0,0,0-.35-2c-.14-.6-.31-1.28-.49-2A12,12,0,0,0,74,18l-.15-.55c.67.26,1.34.5,2,.74,2,.95,4,1.84,6.08,2.7s4.11,1.67,6.21,2.46,4.07,1.85,6.2,2.76,4.22,1.77,6.23,2.71,4.11,2,6.09,3,4.1,2.12,6.26,3.36q2.85,1.65,5.37,3.35a42.45,42.45,0,0,1,4.19,3.15,22.69,22.69,0,0,1,1.7,1.7,6.88,6.88,0,0,1,1.21,1.84,11.54,11.54,0,0,1,1,3.5l-.45.78C126.13,49.56,126.2,49.63,126.18,49.66Z"/></g></g></svg>