<svg xmlns="http://www.w3.org/2000/svg" xmlns:xlink="http://www.w3.org/1999/xlink" viewBox="0 0 78.74 65.85"><defs><style>.cls-1{fill:#0052c4;}.cls-2{fill:url(#linear-gradient);}.cls-3{fill:#231f20;}</style><linearGradient id="linear-gradient" x1="34.41" y1="128.64" x2="71.22" y2="165.44" gradientTransform="matrix(1, 0, 0, -1, 0, 172.97)" gradientUnits="userSpaceOnUse"><stop offset="0.27" stop-color="#ffdd15"/><stop offset="0.88" stop-color="#faaf40"/></linearGradient></defs><g id="Layer_2" data-name="Layer 2"><g id="Layer_2-2" data-name="Layer 2"><path class="cls-1" d="M5.93,20.88c-1.14-1.11-.83-1.65.7-1.22l15.45,4.42c1.53.44,2.42-.46,2-2L19.65,6.64c-.44-1.53.11-1.85,1.22-.7L32.05,17.49c1.11,1.14,2.33.82,2.71-.73l3.9-15.59c.19-.77.45-1.16.7-1.16H0V39.38a77.88,77.88,0,0,1,19.56-5.31Z"/><path class="cls-2" d="M39.37,35.88c16,0,30.16,1.37,39.37,3.49a77.88,77.88,0,0,0-19.56-5.31L72.81,20.87c1.14-1.11.83-1.65-.7-1.22L56.66,24.07c-1.53.44-2.42-.46-2-2L59.09,6.63c.44-1.53-.11-1.85-1.22-.7L46.69,17.48c-1.11,1.14-2.33.82-2.71-.73L40.08,1.16C39.89.39,39.63,0,39.38,0V35.88Z"/><path class="cls-3" d="M41.74,46.39a1.54,1.54,0,1,1-1.54-1.54A1.54,1.54,0,0,1,41.74,46.39Zm-2.63,19H41.3V50.31H39.11ZM53,55.1c-.69-.32-1.44-.65-2.22-1L49,53.36c-.54-.24-2.64-1.08-2.64-3.31,0-.56,0-3.18,4.15-3.18a7.57,7.57,0,0,1,4.65,1.34L56,46.27a9.88,9.88,0,0,0-5.38-1.42c-5.89,0-6.54,3.6-6.54,5.34a5.17,5.17,0,0,0,3.15,4.72,22.41,22.41,0,0,0,2.22,1l1.86.75a7.08,7.08,0,0,1,1.54.84,3.35,3.35,0,0,1,1.45,2.92c0,1.21-.3,3.41-4.72,3.41a10,10,0,0,1-5.32-1.42l-.75,2a11.57,11.57,0,0,0,6,1.44c4.81,0,7.11-2.23,7.11-5.54a5.46,5.46,0,0,0-3.6-5.21Zm-33-9.82H17.77V57.65c0,1.06,0,6.12-5.12,6.12s-5.12-5.06-5.12-6.12V45.28H5.25V57.91c0,1.1-.12,7.94,7.4,7.94s7.4-6.84,7.4-7.94ZM29.65,50a19.36,19.36,0,0,0-5.83.84V65.41H26v-13A13.73,13.73,0,0,1,29.36,52c3.45,0,4.12,2,4.12,5.55v7.83h2.19V57c0-3.5-1-7-6-7ZM68.13,63.77c-4.48,0-7.29-3.05-7.29-8.43s2.81-8.42,7.29-8.42a8.1,8.1,0,0,1,4.33,1.15l1-1.81a10.47,10.47,0,0,0-5.75-1.41c-4.87,0-9.31,3.66-9.31,10.47v.06c0,6.81,4.44,10.47,9.31,10.47a10.47,10.47,0,0,0,5.75-1.41l-1-1.81a8.1,8.1,0,0,1-4.33,1.15Z"/></g></g></svg>