<?xml version="1.0" encoding="UTF-8"?> <svg xmlns="http://www.w3.org/2000/svg" xmlns:xlink="http://www.w3.org/1999/xlink" width="300px" height="79px" viewBox="0 0 301 79" version="1.1"><g id="surface1"><path style=" stroke:none;fill-rule:nonzero;fill:rgb(63.921569%,10.196078%,11.764706%);fill-opacity:1;" d="M 150.984375 26.910156 C 158.40625 26.910156 164.425781 20.886719 164.425781 13.457031 C 164.429688 6.027344 158.410156 0 150.988281 0.00390625 C 143.5625 0.00390625 137.546875 6.027344 137.550781 13.460938 C 137.550781 20.886719 143.566406 26.90625 150.984375 26.910156 "></path><path style=" stroke:none;fill-rule:nonzero;fill:rgb(0%,17.647059%,35.686275%);fill-opacity:1;" d="M 66.085938 23.710938 C 66.085938 23.710938 143.730469 59.863281 235.910156 23.710938 C 235.910156 23.710938 150.316406 51.097656 66.085938 23.710938 "></path><path style=" stroke:none;fill-rule:nonzero;fill:rgb(0%,17.647059%,35.686275%);fill-opacity:1;" d="M 281.460938 70.464844 L 281.460938 70.816406 C 281.460938 76.195312 284.660156 78.886719 291.113281 78.886719 C 297.566406 78.886719 301 75.984375 301 71.542969 C 301 67.105469 298.53125 65.945312 293.503906 64.277344 C 289.417969 62.960938 287.160156 62.285156 287.160156 60 C 287.160156 58.148438 288.679688 56.878906 291.164062 56.878906 C 292.1875 56.78125 293.207031 57.089844 294 57.742188 C 294.792969 58.394531 295.292969 59.339844 295.390625 60.359375 C 295.398438 60.5 295.398438 60.640625 295.390625 60.78125 L 299.945312 60.78125 L 299.945312 60.644531 C 299.945312 56.15625 296.882812 53.515625 291.484375 53.515625 C 285.542969 53.515625 282.183594 56.425781 282.183594 60.675781 C 282.121094 62.464844 282.921875 64.179688 284.335938 65.277344 C 285.914062 66.308594 287.648438 67.078125 289.46875 67.5625 C 293.519531 68.933594 295.757812 69.589844 295.757812 72 C 295.757812 73.910156 294.035156 75.363281 291.402344 75.363281 C 289.050781 75.6875 286.878906 74.035156 286.558594 71.679688 C 286.5 71.277344 286.5 70.867188 286.558594 70.464844 Z M 257.277344 78.546875 L 261.953125 78.546875 L 261.953125 58.171875 L 271.4375 78.441406 L 278.667969 78.441406 L 278.667969 53.945312 L 274.113281 53.945312 L 274.113281 73.640625 L 264.933594 53.945312 L 257.25 53.945312 Z M 236.523438 66.09375 C 236.523438 60.171875 238.753906 57.132812 242.703125 57.132812 C 246.652344 57.132812 248.910156 60.171875 248.910156 66.09375 C 248.910156 72.011719 246.652344 75.34375 242.621094 75.34375 C 238.59375 75.34375 236.546875 72.117188 236.546875 66.09375 M 231.171875 66.09375 C 231.171875 74.164062 235.527344 78.871094 242.816406 78.871094 C 250.105469 78.871094 254.457031 74.109375 254.457031 66.09375 C 254.457031 58.074219 249.972656 53.582031 242.65625 53.582031 C 235.34375 53.582031 231.015625 58.3125 231.015625 66.066406 M 222.601562 78.441406 L 227.792969 78.441406 L 227.792969 53.945312 L 222.550781 53.945312 Z M 206.480469 78.441406 L 211.71875 78.441406 L 211.71875 57.929688 L 218.871094 57.929688 L 218.871094 53.945312 L 199.171875 53.945312 L 199.171875 57.929688 L 206.375 57.929688 Z M 186.234375 64.988281 L 186.234375 58.046875 L 188.703125 58.046875 C 191.796875 58.046875 193.21875 58.882812 193.21875 61.433594 C 193.21875 63.988281 191.847656 64.882812 188.703125 64.882812 Z M 181.289062 78.441406 L 186.234375 78.441406 L 186.234375 68.960938 L 189.816406 68.960938 C 195.460938 68.960938 198.335938 66.269531 198.335938 61.398438 C 198.335938 56.53125 195.25 53.945312 188.476562 53.945312 L 181.210938 53.945312 Z M 160.941406 66.09375 C 160.941406 60.171875 163.199219 57.132812 167.125 57.132812 C 171.054688 57.132812 173.332031 60.171875 173.332031 66.09375 C 173.332031 72.011719 171.089844 75.335938 167.039062 75.335938 C 162.988281 75.335938 160.859375 72.242188 160.859375 66.214844 M 155.484375 66.214844 C 155.484375 74.285156 159.863281 78.992188 167.125 78.992188 C 174.390625 78.992188 178.792969 74.234375 178.792969 66.214844 C 178.792969 58.191406 174.3125 53.71875 167.136719 53.71875 C 159.957031 53.71875 155.492188 58.449219 155.492188 66.199219 "></path><path style=" stroke:none;fill-rule:nonzero;fill:rgb(0%,17.647059%,35.686275%);fill-opacity:1;" d="M 148.644531 78.429688 L 148.644531 76.402344 L 139.882812 76.402344 L 139.882812 66.699219 L 148.132812 66.699219 L 148.132812 64.894531 L 139.882812 64.894531 L 139.882812 55.855469 L 148.644531 55.855469 L 148.644531 53.945312 L 137.679688 53.945312 L 137.679688 78.429688 Z M 132.792969 71.277344 L 132.792969 71.8125 C 132.792969 75.015625 131.125 76.878906 128.40625 76.878906 C 126.269531 76.917969 124.453125 75.324219 124.214844 73.195312 C 123.859375 70.476562 123.71875 67.734375 123.785156 64.992188 C 123.785156 58.40625 124.671875 55.363281 128.570312 55.363281 C 131.445312 55.363281 132.621094 56.976562 132.65625 60.527344 L 134.914062 60.527344 L 134.914062 60.398438 C 134.914062 55.609375 133.035156 53.5625 128.519531 53.5625 C 125.679688 53.359375 123.074219 55.125 122.203125 57.835938 C 121.566406 60.589844 121.324219 63.421875 121.484375 66.242188 L 121.484375 67.257812 C 121.125 70.246094 121.578125 73.273438 122.800781 76.023438 C 124.023438 77.890625 126.140625 78.972656 128.367188 78.875 C 132.664062 78.875 135.140625 76.1875 135.140625 71.421875 Z M 107.632812 69.933594 L 111.867188 56.179688 L 115.941406 69.933594 Z M 105.101562 78.386719 L 107.011719 71.84375 L 116.445312 71.84375 L 118.445312 78.40625 L 120.941406 78.40625 L 113.253906 53.921875 L 110.777344 53.921875 L 102.933594 78.40625 Z M 91.941406 78.386719 L 102.320312 78.386719 L 102.320312 76.519531 L 94.070312 76.519531 L 94.070312 53.972656 L 91.835938 53.972656 Z M 79.6875 78.386719 L 79.6875 67.085938 L 82.675781 67.085938 C 87.621094 67.085938 89.691406 65.46875 89.691406 60.46875 C 89.691406 55.464844 87.78125 53.925781 83.234375 53.925781 L 77.445312 53.925781 L 77.445312 78.410156 Z M 79.6875 55.582031 L 82.835938 55.582031 C 86.273438 55.582031 87.621094 56.683594 87.621094 60.421875 C 87.621094 64.160156 86.328125 65.347656 82.835938 65.347656 L 79.6875 65.347656 Z M 62.40625 78.386719 L 64.507812 78.386719 L 64.507812 65.945312 L 73.425781 78.429688 L 76.113281 78.429688 L 66.816406 65.371094 L 76.089844 53.964844 L 73.558594 53.964844 L 64.503906 65.023438 L 64.503906 53.945312 L 62.324219 53.945312 Z M 53.148438 66.59375 C 55.40625 66.59375 56.292969 67.5625 56.535156 69.765625 C 56.535156 71.082031 56.535156 73.964844 56.882812 78.40625 L 59.140625 78.40625 C 58.871094 76.371094 58.726562 74.320312 58.710938 72.269531 L 58.710938 70.707031 C 58.710938 67.585938 58.121094 66.148438 55.40625 65.640625 C 58.09375 65.046875 58.925781 63.324219 58.925781 60.097656 C 58.925781 54.910156 56.898438 53.910156 51.242188 53.910156 L 46.46875 53.910156 L 46.46875 78.394531 L 48.617188 78.394531 L 48.617188 66.617188 Z M 48.617188 64.867188 L 48.617188 55.746094 L 51.628906 55.746094 C 55.339844 55.746094 56.820312 56.46875 56.820312 59.886719 C 56.820312 63.300781 55.339844 64.890625 51.199219 64.890625 Z M 28.972656 66.15625 C 28.972656 71.191406 29.128906 74.550781 30.90625 76.621094 C 32.367188 78.113281 34.394531 78.90625 36.476562 78.800781 C 38.558594 78.914062 40.589844 78.117188 42.042969 76.621094 C 43.816406 74.550781 43.976562 71.238281 43.976562 66.15625 C 43.976562 61.074219 43.804688 57.796875 42.011719 55.695312 C 40.570312 54.183594 38.527344 53.394531 36.445312 53.546875 C 34.363281 53.390625 32.320312 54.179688 30.878906 55.695312 C 29.074219 57.796875 28.945312 61.074219 28.945312 66.164062 M 31.226562 66.164062 C 31.226562 58.734375 32.003906 55.402344 36.441406 55.402344 C 40.875 55.402344 41.628906 58.710938 41.628906 66.164062 C 41.628906 73.617188 40.929688 76.925781 36.46875 76.925781 C 32.011719 76.925781 31.257812 73.585938 31.257812 66.164062 M 6.15625 78.429688 L 9.054688 78.429688 L 13.160156 59.597656 C 13.316406 58.734375 13.589844 57.417969 13.910156 55.542969 C 14.101562 56.90625 14.371094 58.261719 14.71875 59.597656 L 19.074219 78.429688 L 21.765625 78.429688 L 27.542969 53.945312 L 25.558594 53.945312 L 21.507812 72.644531 C 21.207031 74.042969 20.941406 75.335938 20.726562 76.734375 C 20.453125 74.824219 20.105469 73.503906 19.917969 72.617188 L 15.589844 53.945312 L 12.308594 53.945312 L 8.304688 72.644531 C 8.089844 73.773438 7.847656 75.121094 7.609375 76.734375 C 7.398438 75.355469 7.113281 73.988281 6.746094 72.644531 L 2.191406 53.816406 L 0 53.816406 Z M 6.15625 78.429688 "></path></g></svg> 